<svg width="40" height="40" viewBox="0 0 40 40" fill="none" xmlns="http://www.w3.org/2000/svg">
<path d="M8.5 29C8.075 29 7.719 28.856 7.432 28.568C7.144 28.281 7 27.925 7 27.5C7 27.075 7.144 26.719 7.432 26.432C7.719 26.144 8.075 26 8.5 26H32.5C32.925 26 33.281 26.144 33.568 26.432C33.856 26.719 34 27.075 34 27.5C34 27.925 33.856 28.281 33.568 28.568C33.281 28.856 32.925 29 32.5 29H8.5ZM8.5 21.5C8.075 21.5 7.719 21.356 7.432 21.068C7.144 20.781 7 20.425 7 20C7 19.575 7.144 19.2185 7.432 18.9305C7.719 18.6435 8.075 18.5 8.5 18.5H32.5C32.925 18.5 33.281 18.6435 33.568 18.9305C33.856 19.2185 34 19.575 34 20C34 20.425 33.856 20.781 33.568 21.068C33.281 21.356 32.925 21.5 32.5 21.5H8.5ZM8.5 14C8.075 14 7.719 13.8565 7.432 13.5695C7.144 13.2815 7 12.925 7 12.5C7 12.075 7.144 11.7185 7.432 11.4305C7.719 11.1435 8.075 11 8.5 11H32.5C32.925 11 33.281 11.1435 33.568 11.4305C33.856 11.7185 34 12.075 34 12.5C34 12.925 33.856 13.2815 33.568 13.5695C33.281 13.8565 32.925 14 32.5 14H8.5Z" fill="#0063FF"/>
</svg>
