<svg width="68" height="60" viewBox="0 0 68 60" fill="none" xmlns="http://www.w3.org/2000/svg">
<path d="M59.2265 3.94802L59.2277 3.95152L67 26.3343V56.25C67 58.0364 65.5364 59.5 63.75 59.5H60C58.2136 59.5 56.75 58.0364 56.75 56.25V52.5V52H56.25H11.25H10.75V52.5V56.25C10.75 58.0364 9.28636 59.5 7.5 59.5H3.75C1.96364 59.5 0.5 58.0364 0.5 56.25V26.3343L8.27105 3.95516C8.27126 3.95459 8.27146 3.95401 8.27167 3.95343C8.99242 1.93065 10.873 0.5 13.125 0.5H54.375C56.6329 0.5 58.5443 1.93573 59.2265 3.94802ZM7.02566 22.3419L6.80629 23H7.5H60H60.6937L60.4743 22.3419L54.8493 5.46689L54.7354 5.125H54.375H13.125H12.7646L12.6507 5.46689L7.02566 22.3419ZM7 35.625C7 39.0136 9.73636 41.75 13.125 41.75C16.5136 41.75 19.25 39.0136 19.25 35.625C19.25 32.2364 16.5136 29.5 13.125 29.5C9.73636 29.5 7 32.2364 7 35.625ZM48.25 35.625C48.25 39.0136 50.9864 41.75 54.375 41.75C57.7636 41.75 60.5 39.0136 60.5 35.625C60.5 32.2364 57.7636 29.5 54.375 29.5C50.9864 29.5 48.25 32.2364 48.25 35.625Z" stroke="#011554"/>
</svg>
