<svg width="57" height="60" viewBox="0 0 57 60" fill="none" xmlns="http://www.w3.org/2000/svg">
<path d="M36.1529 59.5001H30.5V53.8472L45.51 38.8372L51.1629 44.4901L36.1529 59.5001Z" stroke="#011554"/>
<path d="M23.5 59.5V51.15V50.9429L23.6464 50.7964L47.5 26.9429V18.2071L29.7929 0.5H6C2.9794 0.5 0.530001 2.97287 0.530001 6V6.00031L0.5 54C0.5 54.0001 0.5 54.0002 0.5 54.0003M23.5 59.5L0.5 54.0003M23.5 59.5H5.97C2.9495 59.5 0.500169 57.0273 0.5 54.0003M23.5 59.5L0.5 54.0003M26.5 21V21.5H27H43.5H44.7071L43.8536 20.6464L27.3536 4.14645L26.5 3.29289V4.5V21Z" stroke="#011554"/>
<path d="M53.6466 34.2235L55.7766 36.3535C56.7513 37.3282 56.7513 38.9016 55.7766 39.8764L54.0001 41.6528L48.3472 35.9999L50.1237 34.2235C51.0984 33.2487 52.6718 33.2487 53.6466 34.2235Z" stroke="#011554"/>
</svg>
