<svg width="56" height="50" viewBox="0 0 56 50" fill="none" xmlns="http://www.w3.org/2000/svg">
<path fill-rule="evenodd" clip-rule="evenodd" d="M50 0H5.55556C2.5 0 0 2.5 0 5.55556V44.4444C0 47.5 2.5 50 5.55556 50H50C53.0556 50 55.5556 47.5 55.5556 44.4444V5.55556C55.5556 2.5 53.0556 0 50 0ZM22.2222 38.8889H8.33333V33.3333H22.2222V38.8889ZM22.2222 27.7778H8.33333V22.2222H22.2222V27.7778ZM22.2222 16.6667H8.33333V11.1111H22.2222V16.6667ZM35.6111 33.3333L27.7778 25.4444L31.6944 21.5278L35.6111 25.4722L44.4167 16.6667L48.3611 20.6111L35.6111 33.3333Z" fill="#011554"/>
</svg>
