<svg width="40" height="40" viewBox="0 0 40 40" fill="none" xmlns="http://www.w3.org/2000/svg">
<circle cx="20" cy="20" r="20" fill="#011554"/>
<path fill-rule="evenodd" clip-rule="evenodd" d="M17.5594 19.123V19.1225C17.5594 19.1206 17.5594 19.1187 17.5594 19.1167C17.5594 16.8448 19.4037 15 21.6757 15C22.7713 15 23.768 15.4291 24.5057 16.1286C24.6591 16.2738 24.8999 16.2738 25.0533 16.1286C25.7915 15.4291 26.7877 15 27.8833 15C30.1552 15 32 16.8448 32 19.1167C32 19.1187 32 19.1206 32 19.1225V19.123V24.5307C32 25.0902 31.5466 25.5436 30.9871 25.5436C30.428 25.5436 29.9746 25.0902 29.9746 24.5307V19.123C29.9746 19.121 29.9746 19.1187 29.9746 19.1167C29.9746 17.9624 29.0376 17.0254 27.8833 17.0254C26.7294 17.0254 25.7924 17.9624 25.7924 19.1167C25.7924 19.1187 25.7924 19.1206 25.7924 19.123V24.5307C25.7924 25.0902 25.339 25.5436 24.7795 25.5436C24.2204 25.5436 23.767 25.0902 23.767 24.5307V19.123C23.767 19.1206 23.767 19.1187 23.767 19.1167C23.767 17.9624 22.83 17.0254 21.6757 17.0254C20.5218 17.0254 19.5843 17.9624 19.5843 19.1167C19.5843 19.1187 19.5843 19.121 19.5843 19.123V24.5307C19.5843 25.0902 19.1309 25.5436 18.5719 25.5436C18.0128 25.5436 17.5594 25.0902 17.5594 24.5307V19.123Z" fill="#0063FF"/>
<path fill-rule="evenodd" clip-rule="evenodd" d="M15.1703 24.5984C14.3344 25.1616 13.3278 25.49 12.2451 25.49C9.35027 25.49 7 23.1401 7 20.2451C7 17.3503 9.35027 15 12.2451 15C13.3587 15 14.3918 15.3477 15.2414 15.9406C15.3821 16.0388 15.5177 16.1437 15.6479 16.2548C15.7058 16.3267 15.7542 16.4061 15.7915 16.4915C15.8471 16.6188 15.8778 16.7593 15.8778 16.9069C15.8778 17.4814 15.4114 17.9478 14.8369 17.9478C14.689 17.9478 14.5481 17.917 14.4206 17.8612C14.4153 17.8588 14.4099 17.8564 14.4046 17.8539C14.2711 17.7334 14.1276 17.6238 13.9753 17.5267C13.4753 17.2077 12.8816 17.0227 12.2451 17.0227C10.4666 17.0227 9.02267 18.4666 9.02267 20.2451C9.02267 22.0239 10.4666 23.4674 12.2451 23.4674C12.9018 23.4674 13.5128 23.2705 14.0224 22.933C14.1408 22.8546 14.2537 22.7682 14.3604 22.6757C14.383 22.6638 14.4061 22.6531 14.4295 22.643C14.5546 22.5893 14.6924 22.56 14.8369 22.56C15.4114 22.56 15.8778 23.0267 15.8778 23.6012C15.8778 23.7451 15.8485 23.8828 15.7954 24.0075C15.766 24.0764 15.7294 24.1418 15.6866 24.2022C15.5229 24.3444 15.3506 24.477 15.1703 24.5984Z" fill="#F7FAFF"/>
</svg>
