<svg width="74" height="40" viewBox="0 0 74 40" fill="none" xmlns="http://www.w3.org/2000/svg">
<path d="M72.6244 19.872L59.9982 32.6245L53.6869 26.3131L53.3333 25.9596L52.9798 26.3131L46.6667 32.6262L40.3536 26.3131L40.2071 26.1667H40H38.8333H38.4792L38.3617 26.5007C35.6966 34.0735 28.4812 39.5 20 39.5C9.24281 39.5 0.5 30.7572 0.5 20C0.5 9.24281 9.24281 0.5 20 0.5C28.4812 0.5 35.6966 5.92648 38.3617 13.4993L38.4792 13.8333H38.8333H66.4625L72.6244 19.872ZM9.5 20C9.5 25.7761 14.2239 30.5 20 30.5C25.7761 30.5 30.5 25.7761 30.5 20C30.5 14.2239 25.7761 9.5 20 9.5C14.2239 9.5 9.5 14.2239 9.5 20Z" stroke="#011554"/>
</svg>
