<svg width="98" height="16" viewBox="0 0 98 16" fill="none" xmlns="http://www.w3.org/2000/svg">
<g clip-path="url(#clip0_4001_4)">
<path fill-rule="evenodd" clip-rule="evenodd" d="M12.3794 14.5438C11.1128 15.3972 9.58769 15.8948 7.9471 15.8948C3.56072 15.8948 -0.000488281 12.3342 -0.000488281 7.94758C-0.000488281 3.5612 3.56072 -1.14441e-05 7.9471 -1.14441e-05C9.63446 -1.14441e-05 11.1998 0.526895 12.4871 1.42526C12.7003 1.57396 12.9059 1.73292 13.1032 1.90137C13.1908 2.01023 13.2643 2.13054 13.3208 2.26C13.4049 2.45283 13.4514 2.66574 13.4514 2.88944C13.4514 3.75984 12.7447 4.46658 11.8743 4.46658C11.6501 4.46658 11.4367 4.41989 11.2435 4.33532C11.2354 4.33172 11.2272 4.32813 11.2192 4.32437C11.017 4.14172 10.7994 3.97566 10.5687 3.8285C9.81112 3.34512 8.91156 3.06482 7.9471 3.06482C5.25219 3.06482 3.06434 5.25266 3.06434 7.94758C3.06434 10.6428 5.25219 12.8302 7.9471 12.8302C8.94209 12.8302 9.8679 12.5317 10.6401 12.0204C10.8195 11.9015 10.9906 11.7707 11.1523 11.6305C11.1865 11.6125 11.2214 11.5963 11.257 11.5809C11.4466 11.4996 11.6553 11.4552 11.8743 11.4552C12.7447 11.4552 13.4514 12.1623 13.4514 13.0328C13.4514 13.2509 13.4071 13.4595 13.3266 13.6485C13.2821 13.7528 13.2266 13.852 13.1617 13.9435C12.9137 14.159 12.6526 14.3599 12.3794 14.5438Z" fill="#011554"/>
<path fill-rule="evenodd" clip-rule="evenodd" d="M30.7237 15.8956C30.3175 15.8956 29.9273 15.7342 29.6406 15.4467C29.5074 15.3135 29.4017 15.1593 29.3264 14.9914C29.2547 14.8328 29.1193 14.7134 28.9535 14.6619C28.7878 14.6113 28.6082 14.6337 28.4598 14.7249C27.2515 15.467 25.8296 15.8956 24.3085 15.8956C19.9226 15.8956 16.3613 12.3343 16.3613 7.94774C16.3613 3.56114 19.9226 -0.000133514 24.3085 -0.000133514C28.6922 -0.000133514 32.252 3.55679 32.2564 7.93978V7.94774V14.3629C32.2564 14.7691 32.0949 15.1593 31.8075 15.4467C31.5201 15.7342 31.1306 15.8956 30.7237 15.8956ZM29.1917 7.94774C29.1917 7.94485 29.1917 7.93833 29.1917 7.93833C29.1867 5.24801 27.0002 3.06521 24.3085 3.06521C21.6138 3.06521 19.4259 5.25308 19.4259 7.94774C19.4259 10.6424 21.6138 12.8303 24.3085 12.8303C27.0039 12.8303 29.1917 10.6424 29.1917 7.94774Z" fill="#011554"/>
<path fill-rule="evenodd" clip-rule="evenodd" d="M38.2501 8.03475C38.2494 8.19547 38.2458 8.36923 38.2458 8.0362V14.6563C38.2269 14.8083 38.1857 14.9553 38.1234 15.0936C38.0481 15.2615 37.9417 15.4172 37.8085 15.5504C37.5211 15.8378 37.1308 16 36.7239 16C36.3163 16 35.9261 15.8378 35.6387 15.5504C35.3505 15.2623 35.2 14.872 35.2 14.4652L35.2 8C35.2 3.61339 38.7467 0.096283 43.1326 0.096283C47.5192 0.096283 51.0805 3.65755 51.0805 8.04416C51.0805 9.81429 50.5006 11.4505 49.5203 12.7718C49.3567 12.9919 49.3625 13.2945 49.5334 13.5088C50.0155 14.1104 49.9772 14.9929 49.419 15.5504C49.0186 15.9508 48.4517 16.0833 47.9413 15.9486C47.6872 15.882 47.4476 15.7495 47.2492 15.5504L44.2258 12.5271C44.1672 12.4691 44.1144 12.4069 44.0673 12.3417C44.005 12.2556 43.9529 12.1651 43.9109 12.0709C43.6901 11.5779 43.7415 10.9922 44.0673 10.5433C44.1144 10.4782 44.1672 10.4159 44.2258 10.3573C44.8246 9.75854 45.7969 9.75854 46.3956 10.3573L46.4963 10.4579C46.6324 10.5933 46.8242 10.657 47.0139 10.6281C47.2036 10.5991 47.3679 10.4818 47.457 10.3124C47.8139 9.63402 48.0159 8.86226 48.0159 8.04416C48.0159 5.3495 45.828 3.16163 43.1326 3.16163C40.4409 3.16163 38.2552 5.34443 38.2501 8.03475Z" fill="#011554"/>
<path fill-rule="evenodd" clip-rule="evenodd" d="M54.009 6.24711V6.24639C54.009 6.24349 54.009 6.24059 54.009 6.2377C54.009 2.79516 56.8036 -0.000133514 60.2461 -0.000133514C61.9062 -0.000133514 63.4164 0.650002 64.5343 1.70991C64.7667 1.93 65.1316 1.93 65.364 1.70991C66.4825 0.650002 67.992 -0.000133514 69.6521 -0.000133514C73.0946 -0.000133514 75.8899 2.79516 75.8899 6.2377C75.8899 6.24059 75.8899 6.24349 75.8899 6.24639V6.24711V14.4411C75.8899 15.2889 75.2029 15.976 74.3551 15.976C73.508 15.976 72.821 15.2889 72.821 14.4411V6.24711C72.821 6.24421 72.821 6.24059 72.821 6.2377C72.821 4.48856 71.4012 3.06883 69.6521 3.06883C67.9037 3.06883 66.484 4.48856 66.484 6.2377C66.484 6.24059 66.484 6.24349 66.484 6.24711V14.4411C66.484 15.2889 65.7969 15.976 64.9491 15.976C64.1021 15.976 63.415 15.2889 63.415 14.4411V6.24711C63.415 6.24349 63.415 6.24059 63.415 6.2377C63.415 4.48856 61.9953 3.06883 60.2461 3.06883C58.4977 3.06883 57.0773 4.48856 57.0773 6.2377C57.0773 6.24059 57.0773 6.24421 57.0773 6.24711V14.4411C57.0773 15.2889 56.3902 15.976 55.5431 15.976C54.6961 15.976 54.009 15.2889 54.009 14.4411V6.24711Z" fill="#0063FF"/>
<path fill-rule="evenodd" clip-rule="evenodd" d="M81.4783 13.8663C79.8602 12.4111 78.8416 10.3014 78.8416 7.95572C78.8416 3.56912 82.4028 0.00784683 86.7894 0.00784683C89.1344 0.00784683 91.2441 1.02649 92.6993 2.64459C92.797 2.75247 92.8911 2.86323 92.9824 2.9769C92.9831 2.97762 92.9831 2.97835 92.9838 2.97835C94.1574 4.42631 94.0488 6.52585 92.7311 7.8435L92.7297 7.84495C91.0015 9.58106 88.7782 11.8044 88.7782 11.8044C88.6059 11.9767 88.5538 12.2366 88.6472 12.4618C88.7406 12.6877 88.9606 12.8346 89.2046 12.8346H96.5849C96.9918 12.8346 97.382 12.9961 97.6694 13.2835C97.9576 13.5716 98.119 13.9619 98.119 14.3687C98.119 15.2165 97.4319 15.9036 96.5849 15.9036H86.7894C86.7778 15.9036 86.7662 15.9036 86.7554 15.9029C86.2283 15.9007 85.7136 15.8478 85.2155 15.7472C83.7972 15.462 82.5143 14.7981 81.4783 13.8663ZM83.7241 11.7559C83.9637 11.9492 84.3112 11.9311 84.5299 11.7132L90.5462 5.69618C90.7648 5.47826 90.7829 5.13075 90.5889 4.89039C89.694 3.78197 88.3235 3.07319 86.7894 3.07319C84.094 3.07319 81.9062 5.26106 81.9062 7.95572C81.9062 9.48984 82.6157 10.8603 83.7241 11.7559Z" fill="#0063FF"/>
</g>
<defs>
<clipPath id="clip0_4001_4">
<rect width="98" height="16" fill="white"/>
</clipPath>
</defs>
</svg>
