<svg width="34" height="60" viewBox="0 0 34 60" fill="none" xmlns="http://www.w3.org/2000/svg">
<path d="M21.7667 7.3V7.69266L22.1481 7.78575C28.6724 9.37778 32.0275 14.1797 32.4365 19.5H26.0676C25.8983 17.537 25.2617 15.8204 23.9245 14.572C22.4825 13.2258 20.3065 12.5 17.2667 12.5C14.3822 12.5 12.0214 13.1477 10.3665 14.3119C8.69736 15.4861 7.76667 17.1756 7.76667 19.1667C7.76667 20.0251 7.93231 20.8274 8.32141 21.5763C8.70972 22.3238 9.30674 22.9915 10.1318 23.6019C11.767 24.8119 14.3457 25.8308 18.1409 26.8173C21.9153 27.7983 25.7495 29.079 28.6367 31.2536C31.4957 33.4069 33.4333 36.44 33.4333 41C33.4333 44.2758 32.201 46.7934 30.1976 48.6499C28.1823 50.5177 25.362 51.7371 22.1735 52.3421L21.7667 52.4193V52.8333V59.5H12.7667V52.7667V52.3622L12.3711 52.2777C6.26115 50.973 1.14844 47.1672 0.537774 40.5H6.88825C7.15326 42.393 7.9693 44.1058 9.55091 45.366C11.2483 46.7186 13.7651 47.5 17.2667 47.5C21.0288 47.5 23.4149 46.5633 24.8649 45.2497C26.3169 43.9343 26.7667 42.2979 26.7667 41.0333C26.7667 39.3756 26.3131 37.7241 24.7341 36.2399C23.1827 34.7815 20.5834 33.5218 16.3834 32.5138C11.7596 31.4034 7.92706 29.9081 5.25789 27.776C2.61237 25.6628 1.1 22.9188 1.1 19.2333C1.1 13.1344 6.02267 9.06338 12.3725 7.68868L12.7667 7.60334V7.2V0.5H21.7667V7.3Z" stroke="#011554"/>
</svg>
