<svg width="40" height="50" viewBox="0 0 40 50" fill="none" xmlns="http://www.w3.org/2000/svg">
<path d="M25 0H5C2.25 0 0.0250006 2.25 0.0250006 5L0 45C0 47.75 2.225 50 4.975 50H35C37.75 50 40 47.75 40 45V15L25 0ZM20 40C14.875 40 10.475 36.9 8.55 32.5H12.825C14.4 34.75 17.025 36.25 20 36.25C24.825 36.25 28.75 32.325 28.75 27.5C28.75 22.675 24.825 18.75 20 18.75C16.625 18.75 13.7 20.7 12.25 23.5L16.25 27.5H6.25V17.5L9.5 20.75C11.725 17.3 15.575 15 20 15C26.9 15 32.5 20.6 32.5 27.5C32.5 34.4 26.9 40 20 40Z" fill="#011554"/>
</svg>
