<svg width="60" height="60" viewBox="0 0 60 60" fill="none" xmlns="http://www.w3.org/2000/svg">
<path d="M39.8245 38.0958L39.9697 38.2358H40.1715H42.6742L59.2932 54.8882L54.8882 59.2932L38.2358 42.6742V40.1715V39.9697L38.0958 39.8245L37.1695 38.8639L36.8417 38.524L36.4837 38.8318C32.66 42.1189 27.6973 44.0969 22.2985 44.0969C10.259 44.0969 0.5 34.3379 0.5 22.2985C0.5 10.259 10.259 0.5 22.2985 0.5C34.3379 0.5 44.0969 10.259 44.0969 22.2985C44.0969 27.6973 42.1189 32.66 38.8318 36.4837L38.524 36.8417L38.8639 37.1695L39.8245 38.0958ZM6.36106 22.2985C6.36106 31.1166 13.4803 38.2358 22.2985 38.2358C31.1166 38.2358 38.2358 31.1166 38.2358 22.2985C38.2358 13.4803 31.1166 6.36106 22.2985 6.36106C13.4803 6.36106 6.36106 13.4803 6.36106 22.2985Z" stroke="#011554"/>
</svg>
