<svg width="41" height="50" viewBox="0 0 41 50" fill="none" xmlns="http://www.w3.org/2000/svg">
<path d="M20.2276 33.7547C21.2811 33.7547 22.1761 33.3856 22.9128 32.6473C23.6511 31.9107 24.0202 31.0156 24.0202 29.9621V27.4336H26.5487C27.6022 27.4336 28.4973 27.0645 29.2339 26.3262C29.9722 25.5896 30.3413 24.6945 30.3413 23.641C30.3413 22.5874 29.9722 21.6924 29.2339 20.9558C28.4973 20.2174 27.6022 19.8483 26.5487 19.8483H24.0202V17.3198C24.0202 16.2663 23.6511 15.3713 22.9128 14.6346C22.1761 13.8963 21.2811 13.5272 20.2276 13.5272C19.174 13.5272 18.279 13.8963 17.5424 14.6346C16.804 15.3713 16.4349 16.2663 16.4349 17.3198V19.8483H13.9064C12.8529 19.8483 11.9579 20.2174 11.2212 20.9558C10.4829 21.6924 10.1138 22.5874 10.1138 23.641C10.1138 24.6945 10.4829 25.5896 11.2212 26.3262C11.9579 27.0645 12.8529 27.4336 13.9064 27.4336H16.4349V29.9621C16.4349 31.0156 16.804 31.9107 17.5424 32.6473C18.279 33.3856 19.174 33.7547 20.2276 33.7547ZM20.2276 50H19.5954C19.3847 50 19.1951 49.9579 19.0265 49.8736C13.5061 48.1458 8.95491 44.7215 5.37295 39.6005C1.79098 34.4813 0 28.8243 0 22.6296V10.6827C0 9.62916 0.305942 8.68099 0.917825 7.83818C1.52802 6.99536 2.31774 6.38432 3.28698 6.00506L18.4576 0.316056C19.0476 0.105352 19.6376 0 20.2276 0C20.8175 0 21.4075 0.105352 21.9975 0.316056L37.1681 6.00506C38.1374 6.38432 38.9279 6.99536 39.5398 7.83818C40.15 8.68099 40.4551 9.62916 40.4551 10.6827V22.6296C40.4551 28.8243 38.6641 34.4813 35.0822 39.6005C31.5002 44.7215 26.949 48.1458 21.4286 49.8736C21.2179 49.9579 20.8175 50 20.2276 50Z" fill="#011554"/>
</svg>
